# xmcd
#
# Track frame offsets:
# 150
# 43778
# 89167
# 148054
# 198230
# 243709
#
# Disc length: 3859 seconds
#
# Revision: 0
# Processed by: cddbd v1.4PL0 Copyright (c) Steve Scherf et al.
# Submitted via: Audion 3.0.2 (http://www.panic.com/audion/)
#
DISCID=5a0f1106
DTITLE=max neuhaus - max neuhaus > fontana mix - feed
DYEAR=1900
DGENRE=
TTITLE0=feed
TTITLE1=feed
TTITLE2=feed
TTITLE3=feed
TTITLE4=feed
TTITLE5=feed
EXTD=
EXTT0=
EXTT1=
EXTT2=
EXTT3=
EXTT4=
EXTT5=
PLAYORDER=
